<?xml version="1.0" encoding="UTF-8"?>
<!--Generator: Apple Native CoreSVG 175-->
<!DOCTYPE svg
PUBLIC "-//W3C//DTD SVG 1.1//EN"
       "http://www.w3.org/Graphics/SVG/1.1/DTD/svg11.dtd">
<svg version="1.1" xmlns="http://www.w3.org/2000/svg" xmlns:xlink="http://www.w3.org/1999/xlink" width="21.5234" height="21.4551">
 <g>
  <rect height="21.4551" opacity="0" width="21.5234" x="0" y="0"/>
  <path d="M6.00586 21.4551Q6.36719 21.4551 6.66992 21.2598Q6.97266 21.0645 7.41211 20.6738L10.7812 17.6758L17.0508 17.6758Q18.5059 17.6758 19.502 17.1533Q20.498 16.6309 21.0107 15.6348Q21.5234 14.6387 21.5234 13.2031L21.5234 5.72266Q21.5234 4.28711 21.0107 3.29102Q20.498 2.29492 19.502 1.77246Q18.5059 1.25 17.0508 1.25L4.47266 1.25Q3.01758 1.25 2.02148 1.77246Q1.02539 2.29492 0.512695 3.29102Q0 4.28711 0 5.72266L0 13.2031Q0 14.6387 0.512695 15.6348Q1.02539 16.6309 2.02148 17.1533Q3.01758 17.6758 4.47266 17.6758L4.94141 17.6758L4.94141 20.2148Q4.94141 20.7812 5.21973 21.1182Q5.49805 21.4551 6.00586 21.4551ZM6.40625 19.668L6.40625 16.8359Q6.40625 16.4355 6.24023 16.2695Q6.07422 16.1035 5.67383 16.1035L4.47266 16.1035Q2.98828 16.1035 2.28027 15.3662Q1.57227 14.6289 1.57227 13.1934L1.57227 5.72266Q1.57227 4.29688 2.28027 3.55957Q2.98828 2.82227 4.47266 2.82227L17.0508 2.82227Q18.5254 2.82227 19.2383 3.55957Q19.9512 4.29688 19.9512 5.72266L19.9512 13.1934Q19.9512 14.6289 19.2383 15.3662Q18.5254 16.1035 17.0508 16.1035L10.7227 16.1035Q10.3125 16.1035 10.0586 16.1914Q9.80469 16.2793 9.53125 16.5625ZM5.73242 6.76758L15.6641 6.76758Q15.9082 6.76758 16.0693 6.60156Q16.2305 6.43555 16.2305 6.20117Q16.2305 5.9668 16.0693 5.80566Q15.9082 5.64453 15.6641 5.64453L5.73242 5.64453Q5.48828 5.64453 5.32715 5.80566Q5.16602 5.9668 5.16602 6.20117Q5.16602 6.43555 5.32715 6.60156Q5.48828 6.76758 5.73242 6.76758ZM5.73242 9.94141L15.6641 9.94141Q15.9082 9.94141 16.0693 9.78027Q16.2305 9.61914 16.2305 9.375Q16.2305 9.15039 16.0693 8.97949Q15.9082 8.80859 15.6641 8.80859L5.73242 8.80859Q5.48828 8.80859 5.32715 8.97949Q5.16602 9.15039 5.16602 9.375Q5.16602 9.61914 5.32715 9.78027Q5.48828 9.94141 5.73242 9.94141ZM5.73242 13.125L12.1875 13.125Q12.4219 13.125 12.5879 12.9639Q12.7539 12.8027 12.7539 12.5684Q12.7539 12.3242 12.5879 12.1582Q12.4219 11.9922 12.1875 11.9922L5.73242 11.9922Q5.48828 11.9922 5.32715 12.1582Q5.16602 12.3242 5.16602 12.5684Q5.16602 12.8027 5.32715 12.9639Q5.48828 13.125 5.73242 13.125Z" fill="#8c8c8c"/>
 </g>
</svg>
