<?xml version="1.0" encoding="UTF-8"?>
<!--Generator: Apple Native CoreSVG 175-->
<!DOCTYPE svg
PUBLIC "-//W3C//DTD SVG 1.1//EN"
       "http://www.w3.org/Graphics/SVG/1.1/DTD/svg11.dtd">
<svg version="1.1" xmlns="http://www.w3.org/2000/svg" xmlns:xlink="http://www.w3.org/1999/xlink" width="18.9062" height="23.4863">
 <g>
  <rect height="23.4863" opacity="0" width="18.9062" x="0" y="0"/>
  <path d="M4.98047 21.748L13.9355 21.748Q14.9805 21.748 15.6348 21.123Q16.2891 20.498 16.3379 19.4434L17.0117 5.24414L18.1836 5.24414Q18.4863 5.24414 18.6963 5.02441Q18.9062 4.80469 18.9062 4.50195Q18.9062 4.19922 18.6914 3.98438Q18.4766 3.76953 18.1836 3.76953L0.732422 3.76953Q0.439453 3.76953 0.219727 3.98926Q0 4.20898 0 4.50195Q0 4.80469 0.219727 5.02441Q0.439453 5.24414 0.732422 5.24414L1.9043 5.24414L2.57812 19.4531Q2.62695 20.5078 3.27637 21.1279Q3.92578 21.748 4.98047 21.748ZM5.11719 20.2734Q4.69727 20.2734 4.41406 19.9902Q4.13086 19.707 4.11133 19.2773L3.42773 5.24414L15.4395 5.24414L14.7949 19.2773Q14.7754 19.7168 14.4922 19.9951Q14.209 20.2734 13.7793 20.2734ZM6.5625 18.6035Q6.83594 18.6035 7.00195 18.4424Q7.16797 18.2812 7.16797 18.0273L6.86523 7.57812Q6.86523 7.32422 6.69434 7.16797Q6.52344 7.01172 6.25977 7.01172Q5.98633 7.01172 5.81543 7.17285Q5.64453 7.33398 5.6543 7.58789L5.94727 18.0273Q5.95703 18.291 6.12305 18.4473Q6.28906 18.6035 6.5625 18.6035ZM9.45312 18.6035Q9.73633 18.6035 9.91211 18.4424Q10.0879 18.2812 10.0879 18.0273L10.0879 7.58789Q10.0879 7.33398 9.91211 7.17285Q9.73633 7.01172 9.45312 7.01172Q9.17969 7.01172 9.00391 7.17285Q8.82812 7.33398 8.82812 7.58789L8.82812 18.0273Q8.82812 18.2812 9.00391 18.4424Q9.17969 18.6035 9.45312 18.6035ZM12.3535 18.6035Q12.6172 18.6035 12.7832 18.4473Q12.9492 18.291 12.959 18.0273L13.252 7.58789Q13.2617 7.33398 13.0957 7.17285Q12.9297 7.01172 12.6465 7.01172Q12.3828 7.01172 12.2168 7.16797Q12.0508 7.32422 12.041 7.58789L11.748 18.0273Q11.7383 18.2812 11.9043 18.4424Q12.0703 18.6035 12.3535 18.6035ZM5.16602 4.46289L6.71875 4.46289L6.71875 2.37305Q6.71875 1.96289 6.9873 1.70898Q7.25586 1.45508 7.69531 1.45508L11.1914 1.45508Q11.6309 1.45508 11.8994 1.70898Q12.168 1.96289 12.168 2.37305L12.168 4.46289L13.7207 4.46289L13.7207 2.27539Q13.7207 1.2207 13.0713 0.610352Q12.4219 0 11.2988 0L7.58789 0Q6.46484 0 5.81543 0.610352Q5.16602 1.2207 5.16602 2.27539Z" fill="#cccccc"/>
 </g>
</svg>
