<?xml version="1.0" encoding="UTF-8"?>
<!--Generator: Apple Native CoreSVG 175-->
<!DOCTYPE svg
PUBLIC "-//W3C//DTD SVG 1.1//EN"
       "http://www.w3.org/Graphics/SVG/1.1/DTD/svg11.dtd">
<svg version="1.1" xmlns="http://www.w3.org/2000/svg" xmlns:xlink="http://www.w3.org/1999/xlink" width="25.918" height="17.9199">
 <g>
  <rect height="17.9199" opacity="0" width="25.918" x="0" y="0"/>
  <path d="M14.4043 17.9102Q14.9023 17.9102 15.2246 17.5879Q15.5469 17.2656 15.5469 16.7676L15.5469 13.0371L15.8301 13.0371Q17.7246 13.0371 19.1797 13.4082Q20.6348 13.7793 21.748 14.6826Q22.8613 15.5859 23.7109 17.1875Q23.9648 17.6562 24.2822 17.7832Q24.5996 17.9102 24.9121 17.9102Q25.3027 17.9102 25.6104 17.5732Q25.918 17.2363 25.918 16.6016Q25.918 13.8965 25.3271 11.7334Q24.7363 9.57031 23.5107 8.03711Q22.2852 6.50391 20.376 5.69336Q18.4668 4.88281 15.8301 4.88281L15.5469 4.88281L15.5469 1.19141Q15.5469 0.703125 15.2246 0.351562Q14.9023 0 14.3848 0Q14.0234 0 13.7402 0.161133Q13.457 0.322266 13.0664 0.693359L5.36133 7.90039Q5.07812 8.16406 4.9707 8.4375Q4.86328 8.71094 4.86328 8.95508Q4.86328 9.18945 4.9707 9.46289Q5.07812 9.73633 5.36133 10L13.0664 17.2754Q13.418 17.6074 13.7305 17.7588Q14.043 17.9102 14.4043 17.9102ZM13.8477 15.8105Q13.7598 15.8105 13.6719 15.7227L6.71875 9.14062Q6.66016 9.08203 6.63574 9.03809Q6.61133 8.99414 6.61133 8.95508Q6.61133 8.86719 6.71875 8.76953L13.6719 2.09961Q13.7109 2.07031 13.75 2.0459Q13.7891 2.02148 13.8379 2.02148Q13.9746 2.02148 13.9746 2.1582L13.9746 6.03516Q13.9746 6.35742 14.3066 6.35742L15.6152 6.35742Q17.627 6.35742 19.1016 6.87012Q20.5762 7.38281 21.5918 8.28613Q22.6074 9.18945 23.2324 10.3711Q23.8574 11.5527 24.165 12.8955Q24.4727 14.2383 24.5312 15.6152Q24.5312 15.7227 24.4531 15.7227Q24.4238 15.7227 24.4043 15.6982Q24.3848 15.6738 24.3652 15.625Q23.7891 14.4043 22.6172 13.4863Q21.4453 12.5684 19.6875 12.0654Q17.9297 11.5625 15.6152 11.5625L14.3066 11.5625Q13.9746 11.5625 13.9746 11.8848L13.9746 15.6641Q13.9746 15.8105 13.8477 15.8105ZM9.54102 17.9102Q10.0391 17.9102 10.3613 17.5879Q10.6836 17.2656 10.6836 16.7676L10.6836 14.2578L9.11133 13.0078L9.11133 15.6641Q9.11133 15.8105 8.97461 15.8105Q8.89648 15.8105 8.80859 15.7227L1.85547 9.14062Q1.79688 9.08203 1.77246 9.03809Q1.74805 8.99414 1.74805 8.95508Q1.74805 8.86719 1.85547 8.76953L8.80859 2.09961Q8.84766 2.07031 8.88672 2.0459Q8.92578 2.02148 8.97461 2.02148Q9.11133 2.02148 9.11133 2.1582L9.11133 4.88281L10.6836 3.64258L10.6836 1.19141Q10.6836 0.703125 10.3564 0.351562Q10.0293 0 9.52148 0Q9.16016 0 8.87695 0.161133Q8.59375 0.322266 8.20312 0.693359L0.488281 7.90039Q0.205078 8.16406 0.102539 8.4375Q0 8.71094 0 8.95508Q0 9.18945 0.107422 9.46289Q0.214844 9.73633 0.488281 10L8.20312 17.2754Q8.54492 17.6074 8.8623 17.7588Q9.17969 17.9102 9.54102 17.9102Z" fill="#cccccc"/>
 </g>
</svg>
