<?xml version="1.0" standalone="no"?><!DOCTYPE svg PUBLIC "-//W3C//DTD SVG 1.1//EN" "http://www.w3.org/Graphics/SVG/1.1/DTD/svg11.dtd"><svg t="1650734911038" class="icon" viewBox="0 0 1024 1024" version="1.1" xmlns="http://www.w3.org/2000/svg" p-id="4469" data-spm-anchor-id="a313x.7781069.0.i0" xmlns:xlink="http://www.w3.org/1999/xlink" width="200" height="200"><defs><style type="text/css">@font-face { font-family: feedback-iconfont; src: url("//at.alicdn.com/t/font_1031158_u69w8yhxdu.woff2?t=1630033759944") format("woff2"), url("//at.alicdn.com/t/font_1031158_u69w8yhxdu.woff?t=1630033759944") format("woff"), url("//at.alicdn.com/t/font_1031158_u69w8yhxdu.ttf?t=1630033759944") format("truetype"); }
</style></defs><path d="M186.368 249.856c-38.912 0-69.632 30.72-69.632 69.632v391.168c0 38.912 30.72 69.632 69.632 69.632s69.632-30.72 69.632-69.632V319.488c-2.048-38.912-32.768-69.632-69.632-69.632z m446.464 0c-38.912 0-69.632 30.72-69.632 69.632v391.168c0 38.912 30.72 69.632 69.632 69.632s69.632-30.72 69.632-69.632V319.488c-2.048-38.912-32.768-69.632-69.632-69.632z m223.232 229.376c-38.912 0-69.632 30.72-69.632 69.632v163.84c0 38.912 30.72 69.632 69.632 69.632s69.632-30.72 69.632-69.632v-163.84c0-38.912-30.72-69.632-69.632-69.632z" fill="#FFCA28" p-id="4470" data-spm-anchor-id="a313x.7781069.0.i2" class="selected"></path><path d="M409.6 63.488c-38.912 0-69.632 30.72-69.632 69.632v579.584c0 38.912 30.72 69.632 69.632 69.632s69.632-30.72 69.632-69.632V131.072c-2.048-36.864-32.768-67.584-69.632-67.584z m534.528 768H79.872c-43.008 0-77.824 34.816-77.824 77.824s34.816 77.824 77.824 77.824h866.304c43.008 0 77.824-34.816 77.824-77.824-2.048-45.056-36.864-77.824-79.872-77.824z" fill="#FE555C" p-id="4471" data-spm-anchor-id="a313x.7781069.0.i1" class="selected"></path></svg>