<?xml version="1.0" standalone="no"?><!DOCTYPE svg PUBLIC "-//W3C//DTD SVG 1.1//EN" "http://www.w3.org/Graphics/SVG/1.1/DTD/svg11.dtd"><svg t="1689260317733" class="icon" viewBox="0 0 1024 1024" version="1.1" xmlns="http://www.w3.org/2000/svg" p-id="2094" xmlns:xlink="http://www.w3.org/1999/xlink" width="200" height="200"><path d="M511.956 62C263.426 62 62 263.426 62 511.956c0 83.4 23.112 161.176 62.572 228.143L80.28 933.264l177.082-50.444c72.415 49.829 160.121 79.181 254.595 79.181 248.53 0 449.956-201.426 449.956-449.956 0-248.618-201.426-450.044-449.956-450.044z m47.105 485.988H458.875l37.087-101.944h100.186l-37.087 101.944z m-22.234 61.165H436.641l-26.276 72.239c-5.712 15.73-23.112 23.903-39.108 18.104-15.907-5.8-24.08-23.377-18.368-39.02l18.719-51.323h-39.987c-17.049 0-30.847-13.534-30.847-30.583 0-16.873 13.973-30.583 30.847-30.583h62.22l37.087-101.944h-58.002c-17.049 0-30.847-13.534-30.847-30.583 0-16.873 13.973-30.583 30.847-30.583h80.324l20.213-55.541c5.712-15.73 23.112-23.903 39.108-18.104 15.907 5.8 24.08 23.377 18.367 39.02l-12.567 34.626h100.186l20.213-55.541c5.712-15.73 23.112-23.903 39.108-18.104 15.907 5.8 24.08 23.377 18.368 39.02l-12.567 34.626h20.301c17.049 0 30.847 13.534 30.847 30.583 0 16.873-13.972 30.583-30.847 30.583h-42.534l-37.087 101.944h38.317c17.049 0 30.847 13.534 30.847 30.583 0 16.873-13.972 30.583-30.847 30.583h-60.55l-26.276 72.239c-5.712 15.73-23.112 23.903-39.108 18.104-15.907-5.8-24.08-23.377-18.367-39.02l18.456-51.322z" fill="#D85050" p-id="2095"></path></svg>