<svg version="1.2" xmlns="http://www.w3.org/2000/svg" viewBox="0 0 896 896" width="896" height="896">
	<title>write-HKU-svg</title>
	<style>
		.s0 { fill: #d85050 } 
	</style>
	<path id="Layer" fill-rule="evenodd" class="s0" d="m448 0c126.7 3.3 232.2 47.2 316.5 131.5 84.3 84.3 128.2 189.8 131.5 316.5-3.3 126.7-47.2 232.2-131.5 316.5-84.3 84.3-189.8 128.2-316.5 131.5-126.7-3.3-232.2-47.2-316.5-131.5-84.3-84.3-128.2-189.8-131.5-316.5 3.3-126.7 47.2-232.2 131.5-316.5 84.3-84.3 189.8-128.2 316.5-131.5zm-38 410h-148c-10.7 0-19.7 3.7-27 11-7.3 7.3-11 16.3-11 27 0 10.7 3.7 19.7 11 27 7.3 7.3 16.3 11 27 11h148v148c0 10.7 3.7 19.7 11 27 7.3 7.3 16.3 11 27 11 10.7 0 19.7-3.7 27-11 7.3-7.3 11-16.3 11-27v-148h148c10.7 0 19.7-3.7 27-11 7.3-7.3 11-16.3 11-27 0-10.7-3.7-19.7-11-27-7.3-7.3-16.3-11-27-11h-148v-148c0-10.7-3.7-19.7-11-27-7.3-7.3-16.3-11-27-11-10.7 0-19.7 3.7-27 11-7.3 7.3-11 16.3-11 27z"/>
</svg>